<?xml version="1.0" encoding="UTF-8"?>
<svg id="Layer_5" data-name="Layer 5" xmlns="http://www.w3.org/2000/svg" viewBox="0 0 595.28 841.89">
  <defs>
    <style>
      .cls-1 {
        stroke: #0c3353;
        stroke-miterlimit: 10;
        stroke-width: 3px;
      }

      .cls-1, .cls-2 {
        fill: none;
      }

      .cls-3 {
        fill: #0c3353;
      }

      .cls-4 {
        fill: #fbac19;
      }

      .cls-5 {
        fill: #5fbb52;
      }

      .cls-6 {
        fill: #207d81;
      }
    </style>
  </defs>
  <path class="cls-2" d="M210.97,282.5l-11.36,4.65"/>
  <g>
    <circle class="cls-1" cx="303" cy="396" r="115.5"/>
    <g>
      <g>
        <polygon class="cls-4" points="306 310.16 306 359.33 295.81 366.99 294 368.35 294 319.62 306 310.16"/>
        <path class="cls-4" d="M355.77,385.03l-41.46-24.22c-3.03-1.77-5.97-2.34-8.31-1.66-.49,.14-.95,.34-1.38,.59-.29,.16-.55,.35-.8,.56-.06,.05-.13,.09-.19,.14s-.13,.1-.19,.15c-.07,.05-.13,.09-.2,.15-.06,.04-.13,.09-.19,.14-.06,.05-.13,.1-.19,.15-.07,.05-.13,.09-.2,.14-.06,.05-.13,.1-.19,.15-.06,.05-.13,.09-.19,.15-.07,.04-.13,.09-.2,.14-.06,.05-.13,.1-.19,.15-.07,.05-.13,.09-.19,.14-.07,.05-.14,.1-.2,.15s-.13,.09-.19,.15c-.07,.05-.13,.09-.19,.14-.07,.05-.14,.1-.2,.15s-.13,.09-.19,.14c-.07,.05-.13,.1-.2,.15-.06,.05-.13,.09-.19,.15-.06,.04-.13,.09-.19,.14-.07,.05-.13,.1-.2,.15-.06,.05-.13,.09-.19,.14s-.13,.1-.19,.15c-.07,.05-.13,.09-.2,.15-.06,.05-.13,.09-.19,.14s-.13,.1-.19,.15c-.07,.05-.13,.09-.2,.14-.06,.05-.13,.1-.19,.15-.07,.05-.13,.09-.19,.15-.07,.05-.13,.09-.2,.14-.06,.05-.13,.1-.19,.15-.07,.05-.13,.09-.19,.14-.07,.05-.14,.1-.2,.15s-.13,.09-.19,.15c-.07,.05-.13,.09-.2,.14-.06,.05-.13,.1-.19,.15s-.13,.09-.19,.14c-.07,.05-.13,.1-.2,.15-.06,.05-.13,.1-.19,.15-.06,.05-.13,.09-.19,.14-.07,.05-.13,.1-.2,.15-.06,.05-.13,.09-.19,.14s-.13,.1-.19,.15c-.07,.05-.13,.09-.2,.15-.06,.05-.13,.09-.19,.14-.07,.05-.13,.1-.19,.15-.07,.05-.13,.09-.2,.14-.06,.05-.13,.1-.19,.15-.07,.05-.13,.1-.2,.15-.01,.01-.03,.02-.04,.03,.42-.16,.86-.28,1.32-.35,2.18-.36,4.8,.27,7.49,1.84l41.45,24.22c2.8,1.64,5.38,4.12,7.44,6.94l-.19,.07c2.8,3.75,4.62,8.18,4.62,11.97v43.37s-.07-.04-.11-.05v4.01c0,2.23-.59,4.08-1.68,5.41,.01,0,.01,0,.02,0,.28-.16,.54-.35,.79-.56,.06-.05,.13-.09,.19-.14,.07-.05,.13-.1,.19-.15,.07-.05,.14-.09,.2-.14,.06-.05,.13-.1,.19-.15,.07-.05,.14-.09,.2-.15,.06-.05,.13-.09,.19-.14,.06-.05,.13-.1,.19-.15,.07-.05,.13-.09,.19-.14,.07-.05,.14-.1,.2-.15,.07-.05,.13-.09,.2-.15,.06-.05,.13-.09,.19-.14s.13-.1,.19-.15c.07-.05,.13-.09,.2-.14,.06-.05,.12-.1,.19-.15,.06-.05,.13-.09,.19-.15,.07-.05,.13-.09,.2-.14,.06-.05,.13-.1,.19-.15s.13-.09,.19-.14c.07-.05,.13-.1,.19-.15,.07-.05,.14-.09,.2-.15,.06-.05,.13-.09,.19-.14,.07-.05,.14-.1,.2-.15s.13-.09,.19-.14,.13-.1,.19-.15c.07-.05,.13-.09,.19-.14,.07-.05,.14-.1,.2-.15,.07-.05,.13-.1,.2-.15,.06-.05,.13-.09,.19-.14s.13-.1,.19-.15c.07-.05,.13-.1,.2-.15,.06-.05,.12-.09,.19-.14,.06-.05,.13-.1,.19-.15,.07-.05,.13-.09,.2-.14,.06-.05,.13-.1,.19-.15,.06-.05,.13-.1,.19-.15,.07-.04,.13-.09,.19-.14,.07-.05,.14-.1,.2-.15,.07-.05,.13-.09,.2-.15,.06-.05,.13-.09,.19-.14,.06-.05,.13-.1,.19-.15,.07-.05,.13-.09,.19-.14,.07-.05,.13-.1,.19-.15,.07-.05,.14-.09,.2-.15,.07-.04,.13-.09,.2-.14,.06-.05,.13-.1,.19-.15,.06-.05,.13-.09,.19-.14,.07-.05,.13-.1,.2-.15,.06-.05,.12-.09,.19-.14,.06-.05,.13-.1,.19-.15,.07-.05,.13-.1,.2-.15,1.72-1.31,2.66-3.54,2.66-6.37v-45.95c0-6.84-5.48-15.61-12.21-19.55Zm-15.76,60.72l-5.03-2.94-11.36-6.64-9.31-5.44c-6.32-3.7-11.47-11.89-11.47-18.26v-28.95l-10.16-5.94c-.29-.17-.57-.31-.86-.46v43.37c0,.68,.07,1.39,.19,2.1l-.25,.1c1.18,6.29,6.08,13.36,11.94,16.78l19.92,11.64,11.36,6.64,5.03,2.94,5.14,3v-14.94l-5.14-3Z"/>
        <polygon class="cls-6" points="290 322.78 290 371.57 279.8 379.24 278 380.59 278 332.25 290 322.78"/>
        <path class="cls-6" d="M339.16,397.35l-41.46-24.22c-2.77-1.62-5.47-2.24-7.7-1.81-.72,.14-1.39,.39-1.99,.74-.29,.16-.55,.35-.8,.56-.06,.05-.13,.09-.19,.14-.06,.05-.13,.1-.19,.15-.07,.05-.13,.09-.2,.15-.06,.04-.13,.09-.19,.14-.06,.05-.13,.1-.19,.15-.07,.05-.13,.09-.2,.14-.06,.05-.13,.1-.19,.15-.06,.05-.13,.09-.19,.15-.07,.04-.13,.09-.2,.14-.06,.05-.13,.1-.19,.15-.07,.05-.13,.09-.19,.14-.07,.05-.14,.1-.2,.15s-.13,.09-.19,.15c-.07,.05-.13,.09-.19,.14-.07,.05-.14,.1-.2,.15s-.13,.09-.19,.14c-.07,.05-.13,.1-.2,.15-.06,.05-.13,.09-.19,.15-.06,.04-.13,.09-.19,.14-.07,.05-.13,.1-.2,.15-.06,.05-.13,.09-.19,.14s-.13,.1-.19,.15c-.07,.05-.13,.09-.2,.15-.06,.05-.13,.09-.19,.14s-.13,.1-.19,.15c-.07,.05-.13,.09-.2,.14-.06,.05-.13,.1-.19,.15-.07,.05-.13,.09-.19,.15-.07,.05-.13,.09-.2,.14-.06,.05-.13,.1-.19,.15-.07,.05-.13,.09-.19,.14-.07,.05-.14,.1-.2,.15s-.13,.09-.19,.15c-.07,.05-.13,.09-.2,.14-.06,.05-.13,.1-.19,.15s-.13,.09-.19,.14c-.07,.05-.13,.1-.2,.15-.06,.05-.13,.1-.19,.15s-.13,.09-.19,.14c-.07,.05-.13,.1-.2,.15-.06,.05-.13,.09-.19,.14-.06,.05-.13,.1-.19,.15-.07,.05-.13,.09-.2,.15-.06,.05-.13,.09-.19,.14-.07,.05-.13,.1-.19,.15-.07,.05-.13,.09-.2,.14-.06,.05-.13,.1-.19,.15-.04,.03-.08,.06-.12,.09-.03,.02-.05,.04-.08,.06-.01,.01-.03,.02-.04,.03,.04-.02,.08-.03,.12-.04,.56-.21,1.16-.33,1.8-.38,2.05-.17,4.44,.48,6.89,1.91l5.13,3,11.02,6.44,25.3,14.78c2.8,1.64,5.38,4.12,7.44,6.94l-.19,.07c2.8,3.75,4.62,8.18,4.62,11.97v43.37s-.07-.04-.11-.05v4.01c0,2.23-.59,4.08-1.68,5.41,.01,0,.01-.01,.02-.01,.28-.16,.54-.35,.79-.56,.06-.05,.13-.09,.19-.14,.07-.05,.13-.1,.19-.15,.07-.05,.14-.09,.2-.14,.06-.05,.13-.1,.19-.15,.07-.05,.14-.09,.2-.15,.06-.05,.13-.09,.19-.14,.06-.05,.13-.1,.19-.15,.07-.05,.13-.09,.19-.14,.07-.05,.14-.1,.2-.15,.07-.05,.13-.09,.2-.15,.06-.05,.13-.09,.19-.14s.13-.1,.19-.15c.07-.05,.13-.09,.2-.14,.06-.05,.12-.1,.19-.15,.06-.05,.13-.09,.19-.15,.07-.05,.13-.09,.2-.14,.06-.05,.13-.1,.19-.15s.13-.09,.19-.14c.07-.05,.13-.1,.19-.15,.07-.05,.14-.09,.2-.15,.06-.05,.13-.09,.19-.14,.07-.05,.14-.1,.2-.15s.13-.09,.19-.14,.13-.1,.19-.15c.07-.05,.13-.09,.19-.14,.07-.05,.14-.1,.2-.15,.07-.05,.13-.1,.2-.15,.06-.05,.13-.09,.19-.14s.13-.1,.19-.15c.07-.05,.13-.1,.2-.15,.06-.05,.12-.09,.19-.14,.06-.05,.13-.1,.19-.15,.07-.05,.13-.09,.2-.14,.06-.05,.13-.1,.19-.15s.13-.1,.19-.15c.07-.04,.13-.09,.19-.14,.07-.05,.14-.1,.2-.15,.07-.05,.13-.09,.2-.15,.06-.05,.13-.09,.19-.14,.06-.05,.13-.1,.19-.15,.07-.05,.13-.09,.19-.14,.07-.05,.13-.1,.19-.15,.07-.05,.14-.09,.2-.15,.07-.04,.13-.09,.2-.14,.06-.05,.13-.1,.19-.15,.06-.05,.13-.09,.19-.14,.07-.05,.13-.1,.2-.15,.06-.05,.12-.09,.19-.14,.06-.05,.13-.1,.19-.15,.07-.05,.13-.1,.2-.15,1.72-1.31,2.66-3.54,2.66-6.37v-45.95c0-6.84-5.48-15.61-12.21-19.55Zm-15.54,60.85l-25.92-15.15c-6.32-3.7-11.47-11.89-11.47-18.26v-28.95l-10.16-5.94c-.29-.17-.57-.31-.86-.46v43.37c0,.68,.07,1.39,.19,2.1l-.25,.1c1.18,6.29,6.08,13.36,11.94,16.78l36.53,21.35,4.92,2.87v-14.94l-4.92-2.87Z"/>
        <polygon class="cls-3" points="260.71 345.89 258.5 347.85 258.5 397 258.52 396.99 258.52 396.98 270.7 387.98 270.7 384.39 270.7 338 260.71 345.89"/>
        <path class="cls-3" d="M322.77,409.03l-19.93-11.64-11.02-6.44-10.51-6.14c-3.66-2.14-7.2-2.53-9.69-1.07-.29,.16-.55,.35-.8,.56-.04,.03-.08,.06-.12,.09-.02,0-.05,.03-.07,.05-.06,.05-.13,.1-.19,.15-.07,.05-.13,.09-.2,.15-.06,.04-.13,.09-.19,.14-.06,.05-.13,.1-.19,.15-.07,.05-.13,.09-.2,.14-.06,.05-.13,.1-.19,.15-.06,.05-.13,.09-.19,.15-.07,.04-.13,.09-.2,.14-.06,.05-.13,.1-.19,.15-.07,.05-.13,.09-.19,.14-.07,.05-.14,.1-.2,.15s-.13,.09-.19,.15c-.07,.05-.13,.09-.19,.14-.07,.05-.14,.1-.2,.15s-.13,.09-.19,.14c-.07,.05-.13,.1-.2,.15-.06,.05-.13,.09-.19,.15-.06,.04-.13,.09-.19,.14-.07,.05-.13,.1-.2,.15-.06,.05-.13,.09-.19,.14s-.13,.1-.19,.15c-.07,.05-.13,.09-.2,.15-.06,.05-.13,.09-.19,.14s-.13,.1-.19,.15c-.07,.05-.13,.09-.2,.14-.06,.05-.13,.1-.19,.15-.07,.05-.13,.09-.19,.15-.07,.05-.13,.09-.2,.14-.06,.05-.13,.1-.19,.15-.07,.05-.13,.09-.19,.14-.07,.05-.14,.1-.2,.15s-.13,.09-.19,.15c-.07,.05-.13,.09-.2,.14-.06,.05-.13,.1-.19,.15s-.13,.09-.19,.14c-.07,.05-.13,.1-.2,.15-.06,.05-.13,.1-.19,.15-.06,.05-.13,.09-.19,.14-.07,.05-.13,.1-.2,.15-.06,.05-.13,.09-.19,.14s-.13,.1-.19,.15c-.07,.05-.13,.09-.2,.15-.06,.05-.13,.09-.19,.14-.07,.05-.13,.1-.19,.15-.07,.05-.13,.09-.2,.14-.06,.05-.13,.1-.19,.15-.07,.05-.13,.1-.2,.15-.06,.05-.13,.09-.19,.14-.06,.05-.13,.1-.19,.15-1.52,1.15-2.43,3.01-2.63,5.38h0c-.03,.33-.04,.65-.04,.99v45.95c0,6.84,5.48,15.62,12.22,19.55l41.45,24.22c2.17,1.27,4.34,1.94,6.27,1.94,1.29,0,2.44-.29,3.43-.87,.28-.16,.54-.35,.79-.56,.06-.05,.13-.09,.19-.14,.07-.05,.13-.1,.19-.15,.07-.05,.14-.09,.2-.14,.06-.05,.13-.1,.19-.15,.07-.05,.14-.09,.2-.15,.06-.05,.13-.09,.19-.14,.06-.05,.13-.1,.19-.15,.07-.05,.13-.09,.19-.14,.07-.05,.14-.1,.2-.15,.07-.05,.13-.09,.2-.15,.06-.05,.13-.09,.19-.14s.13-.1,.19-.15c.07-.05,.13-.09,.2-.14,.06-.05,.12-.1,.19-.15,.06-.05,.13-.09,.19-.15,.07-.05,.13-.09,.2-.14,.06-.05,.13-.1,.19-.15s.13-.09,.19-.14c.07-.05,.13-.1,.19-.15,.07-.05,.14-.09,.2-.15,.06-.05,.13-.09,.19-.14,.07-.05,.14-.1,.2-.15s.13-.09,.19-.14,.13-.1,.19-.15c.07-.05,.13-.09,.19-.14,.07-.05,.14-.1,.2-.15,.07-.05,.13-.1,.2-.15,.06-.05,.13-.09,.19-.14s.13-.1,.19-.15c.07-.05,.13-.1,.2-.15,.06-.05,.12-.09,.19-.14,.06-.05,.13-.1,.19-.15,.07-.05,.13-.09,.2-.14,.06-.05,.13-.1,.19-.15,.06-.05,.13-.1,.19-.15,.07-.04,.13-.09,.19-.14,.07-.05,.14-.1,.2-.15,.07-.05,.13-.09,.2-.15,.06-.05,.13-.09,.19-.14,.06-.05,.13-.1,.19-.15,.07-.05,.13-.09,.19-.14,.07-.05,.13-.1,.19-.15,.07-.05,.14-.09,.2-.15,.07-.04,.13-.09,.2-.14,.06-.05,.13-.1,.19-.15,.06-.05,.13-.09,.19-.14,.07-.05,.13-.1,.2-.15,.06-.05,.12-.09,.19-.14,.06-.05,.13-.1,.19-.15,.07-.05,.13-.1,.2-.15,1.72-1.31,2.66-3.54,2.66-6.37v-45.95c0-6.84-5.48-15.61-12.21-19.55Zm.85,70.37c-.28-.14-.56-.28-.85-.45l-41.46-24.22c-6.32-3.7-11.47-11.89-11.47-18.26v-43.37c.28,.14,.57,.28,.86,.45l4.51,2.64,11.02,6.43,5.59,3.27,11.02,6.44,9.31,5.44c6.33,3.7,11.47,11.89,11.47,18.26v43.37Z"/>
      </g>
      <polygon class="cls-5" points="258.5 344.25 270.7 334.63 270.7 335.59 258.5 344.61 258.5 344.25"/>
      <line class="cls-2" x1="270.7" y1="338" x2="260.71" y2="345.89"/>
      <polygon class="cls-5" points="284.92 323.41 290 319.4 290 319.59 284.92 323.41"/>
      <polygon class="cls-3" points="270.7 324.45 270.7 335.59 258.5 344.61 258.5 334.07 270.7 324.45"/>
      <polygon class="cls-6" points="290 309.22 290 319.59 284.92 323.41 284.89 323.43 278 328.61 278 318.69 290 309.22"/>
      <polygon class="cls-4" points="306 296.6 306 306.59 294 315.61 294 306.07 306 296.6"/>
    </g>
  </g>
</svg>